M48
; DRILL file {KiCad 5.1.6-c6e7f7d~87~ubuntu18.04.1} date Mon Apr  4 15:31:12 2022
; FORMAT={-:-/ absolute / inch / decimal}
; #@! TF.CreationDate,2022-04-04T15:31:12+03:00
; #@! TF.GenerationSoftware,Kicad,Pcbnew,5.1.6-c6e7f7d~87~ubuntu18.04.1
; #@! TF.FileFunction,Plated,1,4,PTH
FMAT,2
INCH
T1C0.0236
T2C0.0354
T3C0.0394
T4C0.0472
T5C0.0512
%
G90
G05
T1
X4.65Y-2.825
X4.65Y-2.975
X4.65Y-3.05
X4.65Y-3.15
X4.65Y-3.225
X4.65Y-3.6
X4.8Y-2.825
X4.8Y-3.275
X4.8Y-3.5
X4.875Y-3.275
X4.875Y-3.375
X4.875Y-3.5
X4.9Y-3.65
X4.95Y-2.625
X4.95Y-2.825
X4.95Y-2.95
X4.95Y-3.025
X5.0Y-3.65
X5.0Y-3.8
X5.0Y-3.85
X5.08Y-2.55
X5.15Y-3.525
X5.15Y-3.85
X5.2Y-2.7
X5.225Y-3.525
X5.225Y-3.65
X5.225Y-3.75
X5.25Y-2.65
X5.3Y-2.7
X5.3Y-3.6
X5.325Y-2.55
X5.375Y-3.85
X5.38Y-3.705
X5.38Y-3.745
X5.42Y-3.705
X5.42Y-3.745
X5.46Y-3.705
X5.46Y-3.745
X5.5Y-3.705
X5.5Y-3.745
X5.515Y-3.575
X5.54Y-3.705
X5.54Y-3.745
X5.555Y-3.575
X5.575Y-2.55
X5.58Y-3.745
X5.595Y-3.575
X5.62Y-3.705
X5.62Y-3.745
X5.635Y-3.575
X5.66Y-3.705
X5.66Y-3.745
X5.7Y-3.705
X5.7Y-3.745
X5.75Y-2.55
X5.755Y-3.51
X5.755Y-3.69
X5.755Y-3.73
X5.785Y-2.895
X5.785Y-2.935
X5.785Y-2.975
X5.785Y-3.015
X5.795Y-3.51
X5.795Y-3.69
X5.795Y-3.73
X5.825Y-2.895
X5.825Y-2.935
X5.825Y-2.975
X5.825Y-3.015
X5.825Y-3.2
X5.825Y-3.245
X5.825Y-3.285
X5.825Y-3.325
X5.825Y-3.37
X5.835Y-3.51
X5.835Y-3.69
X5.835Y-3.73
X5.855Y-3.81
X5.865Y-2.975
X5.865Y-3.015
X5.865Y-3.2
X5.865Y-3.245
X5.865Y-3.285
X5.865Y-3.325
X5.865Y-3.37
X5.865Y-3.41
X5.905Y-2.975
X5.905Y-3.015
X5.905Y-3.2
X5.905Y-3.37
X5.905Y-3.41
X5.945Y-2.895
X5.945Y-2.935
X5.945Y-2.975
X5.945Y-3.015
X5.945Y-3.055
X5.945Y-3.155
X5.945Y-3.2
X5.945Y-3.37
X5.945Y-3.41
X5.975Y-2.55
X5.975Y-3.5
X5.975Y-3.625
X5.99Y-2.895
X5.99Y-2.935
X5.99Y-2.975
X5.99Y-3.015
X5.99Y-3.055
X5.99Y-3.105
X5.99Y-3.155
X5.99Y-3.2
X5.99Y-3.245
X5.99Y-3.285
X5.99Y-3.325
X5.99Y-3.37
X5.99Y-3.41
X6.025Y-3.56
X6.055Y-2.895
X6.055Y-2.935
X6.06Y-3.595
X6.095Y-2.935
X6.095Y-3.56
X6.13Y-3.595
X6.165Y-3.56
X6.2406Y-3.81
X6.275Y-2.65
X6.3Y-3.85
X6.35Y-3.2
X6.35Y-3.3
X6.375Y-3.6
X6.4Y-3.25
X6.45Y-3.0
X6.45Y-3.2
X6.45Y-3.3
X6.45Y-3.4
X6.45Y-3.5
X6.5Y-3.25
X6.55Y-2.8
X6.55Y-3.0
X6.55Y-3.2
X6.55Y-3.3
X6.55Y-3.6
T2
X5.32Y-3.5016
X5.32Y-3.6984
X5.885Y-2.7761
X5.885Y-2.9139
X6.3408Y-3.4105
X6.3409Y-3.4897
T3
X5.58Y-3.835
X5.68Y-3.835
T4
X5.795Y-3.6
T5
X6.465Y-2.9016
X6.465Y-3.0984
X4.735Y-2.9016
X4.735Y-3.0984
T1
G00X4.75Y-3.3657
M15
G01X4.75Y-3.4484
M16
G05
G00X4.8148Y-3.5882
M15
G01X4.9014Y-3.5882
M16
G05
G00X4.9862Y-3.3657
M15
G01X4.9862Y-3.4602
M16
G05
T0
M30
