G04 #@! TF.GenerationSoftware,KiCad,Pcbnew,5.1.6-c6e7f7d~87~ubuntu18.04.1*
G04 #@! TF.CreationDate,2022-04-04T15:30:34+03:00*
G04 #@! TF.ProjectId,DCDC-50-5-12_Rev_A,44434443-2d35-4302-9d35-2d31325f5265,A*
G04 #@! TF.SameCoordinates,Original*
G04 #@! TF.FileFunction,Soldermask,Top*
G04 #@! TF.FilePolarity,Negative*
%FSLAX46Y46*%
G04 Gerber Fmt 4.6, Leading zero omitted, Abs format (unit mm)*
G04 Created by KiCad (PCBNEW 5.1.6-c6e7f7d~87~ubuntu18.04.1) date 2022-04-04 15:30:34*
%MOMM*%
%LPD*%
G01*
G04 APERTURE LIST*
%ADD10O,3.801600X1.601600*%
%ADD11O,1.601600X3.701600*%
%ADD12O,1.601600X4.001600*%
%ADD13C,2.641600*%
%ADD14R,5.101600X3.101599*%
%ADD15R,1.117600X1.117600*%
%ADD16R,0.651600X0.601600*%
%ADD17R,0.601600X0.651600*%
%ADD18R,1.371600X1.625600*%
%ADD19R,1.801600X2.101600*%
%ADD20C,1.254000*%
%ADD21R,1.901600X1.901600*%
%ADD22C,1.901600*%
%ADD23C,1.501600*%
%ADD24R,1.501600X1.501600*%
%ADD25C,1.625600*%
%ADD26R,1.625600X1.625600*%
%ADD27R,2.301600X3.501600*%
%ADD28R,1.801600X1.101600*%
%ADD29R,0.901600X0.901600*%
%ADD30C,3.401601*%
%ADD31R,1.625600X1.879600*%
%ADD32R,2.701600X3.601600*%
%ADD33R,1.501600X0.701600*%
%ADD34C,0.254000*%
G04 APERTURE END LIST*
D10*
X123396000Y-91140000D03*
D11*
X120650000Y-86540000D03*
D12*
X126650000Y-86690000D03*
D13*
X164211000Y-73700000D03*
X164211000Y-78700000D03*
X120269000Y-78700000D03*
X120269000Y-73700000D03*
D14*
X138430000Y-68360000D03*
X138430000Y-78960000D03*
D15*
X154813000Y-71755000D03*
X154813000Y-73533000D03*
D16*
X153924000Y-86995000D03*
X153924000Y-85979000D03*
D17*
X146685000Y-97282000D03*
X147701000Y-97282000D03*
X148209000Y-87757000D03*
X149225000Y-87757000D03*
D18*
X151003000Y-78867000D03*
X148971000Y-78867000D03*
D17*
X149352000Y-94742000D03*
X150368000Y-94742000D03*
D16*
X155702000Y-86995000D03*
X155702000Y-85979000D03*
D19*
X130556000Y-78700000D03*
X130556000Y-73700000D03*
D20*
X160020000Y-64770000D03*
X124460000Y-64770000D03*
X124460000Y-97790000D03*
D17*
X150368000Y-97409000D03*
X149352000Y-97409000D03*
X150368000Y-96266000D03*
X149352000Y-96266000D03*
D21*
X144272000Y-97409000D03*
D22*
X141732000Y-97409000D03*
D23*
X161056320Y-86626700D03*
D24*
X161058860Y-88638380D03*
D25*
X135128000Y-88940000D03*
D26*
X135128000Y-93940000D03*
D15*
X141732000Y-94107000D03*
X141732000Y-92329000D03*
X144653000Y-87757000D03*
X146431000Y-87757000D03*
D25*
X149479000Y-70513000D03*
D26*
X149479000Y-74013000D03*
D27*
X150593000Y-83439000D03*
X143793000Y-83439000D03*
D28*
X153924000Y-81914000D03*
X153924000Y-78614000D03*
D29*
X153924000Y-90424000D03*
X153924000Y-88900000D03*
X155702000Y-88900000D03*
X155702000Y-90424000D03*
D30*
X120650000Y-95250000D03*
X120650000Y-67310000D03*
X163830000Y-67310000D03*
X163830000Y-95250000D03*
D31*
X134620000Y-82296000D03*
X137414000Y-82296000D03*
X137414000Y-84963000D03*
X134620000Y-84963000D03*
D15*
X147320000Y-78867000D03*
X145542000Y-78867000D03*
D32*
X147193000Y-91440000D03*
D33*
X149993000Y-89535000D03*
X149993000Y-90805000D03*
X149993000Y-92075000D03*
X149993000Y-93345000D03*
X144393000Y-93345000D03*
X144393000Y-92075000D03*
X144393000Y-90805000D03*
X144393000Y-89535000D03*
D22*
X147193000Y-91440000D03*
D34*
G36*
X118237000Y-90297000D02*
G01*
X117475000Y-90297000D01*
X117475000Y-83058000D01*
X118237000Y-83058000D01*
X118237000Y-90297000D01*
G37*
X118237000Y-90297000D02*
X117475000Y-90297000D01*
X117475000Y-83058000D01*
X118237000Y-83058000D01*
X118237000Y-90297000D01*
M02*
