G04 #@! TF.GenerationSoftware,KiCad,Pcbnew,5.1.6-c6e7f7d~87~ubuntu18.04.1*
G04 #@! TF.CreationDate,2022-04-04T15:30:34+03:00*
G04 #@! TF.ProjectId,DCDC-50-5-12_Rev_A,44434443-2d35-4302-9d35-2d31325f5265,A*
G04 #@! TF.SameCoordinates,Original*
G04 #@! TF.FileFunction,Paste,Top*
G04 #@! TF.FilePolarity,Positive*
%FSLAX46Y46*%
G04 Gerber Fmt 4.6, Leading zero omitted, Abs format (unit mm)*
G04 Created by KiCad (PCBNEW 5.1.6-c6e7f7d~87~ubuntu18.04.1) date 2022-04-04 15:30:34*
%MOMM*%
%LPD*%
G01*
G04 APERTURE LIST*
%ADD10R,5.254000X3.253999*%
%ADD11R,1.016000X1.016000*%
%ADD12R,0.550000X0.500000*%
%ADD13R,0.500000X0.550000*%
%ADD14R,1.270000X1.524000*%
%ADD15R,1.700000X2.000000*%
%ADD16R,2.400000X3.600000*%
%ADD17R,1.700000X1.000000*%
%ADD18R,0.800000X0.800000*%
%ADD19R,1.524000X1.778000*%
%ADD20R,2.600000X3.500000*%
%ADD21R,1.400000X0.600000*%
G04 APERTURE END LIST*
D10*
X138430000Y-68360000D03*
X138430000Y-78960000D03*
D11*
X154813000Y-71755000D03*
X154813000Y-73533000D03*
D12*
X153924000Y-86995000D03*
X153924000Y-85979000D03*
D13*
X146685000Y-97282000D03*
X147701000Y-97282000D03*
X148209000Y-87757000D03*
X149225000Y-87757000D03*
D14*
X151003000Y-78867000D03*
X148971000Y-78867000D03*
D13*
X149352000Y-94742000D03*
X150368000Y-94742000D03*
D12*
X155702000Y-86995000D03*
X155702000Y-85979000D03*
D15*
X130556000Y-78700000D03*
X130556000Y-73700000D03*
D13*
X150368000Y-97409000D03*
X149352000Y-97409000D03*
X150368000Y-96266000D03*
X149352000Y-96266000D03*
D11*
X141732000Y-94107000D03*
X141732000Y-92329000D03*
X144653000Y-87757000D03*
X146431000Y-87757000D03*
D16*
X150593000Y-83439000D03*
X143793000Y-83439000D03*
D17*
X153924000Y-81914000D03*
X153924000Y-78614000D03*
D18*
X153924000Y-90424000D03*
X153924000Y-88900000D03*
X155702000Y-88900000D03*
X155702000Y-90424000D03*
D19*
X134620000Y-82296000D03*
X137414000Y-82296000D03*
X137414000Y-84963000D03*
X134620000Y-84963000D03*
D11*
X147320000Y-78867000D03*
X145542000Y-78867000D03*
D20*
X147193000Y-91440000D03*
D21*
X149993000Y-89535000D03*
X149993000Y-90805000D03*
X149993000Y-92075000D03*
X149993000Y-93345000D03*
X144393000Y-93345000D03*
X144393000Y-92075000D03*
X144393000Y-90805000D03*
X144393000Y-89535000D03*
M02*
